<?xml version="1.0" standalone="no"?>
<!DOCTYPE svg PUBLIC "-//W3C//DTD SVG 20010904//EN"
 "http://www.w3.org/TR/2001/REC-SVG-20010904/DTD/svg10.dtd">
<svg version="1.0" xmlns="http://www.w3.org/2000/svg"
 width="5315.000000pt" height="5315.000000pt" viewBox="0 0 5315.000000 5315.000000"
 preserveAspectRatio="xMidYMid meet">

<g transform="translate(0.000000,5315.000000) scale(0.100000,-0.100000)"
fill="#000000" stroke="none">
<path d="M26340 46679 c-235 -61 -422 -219 -525 -442 -76 -164 -69 82 -72
-2659 l-3 -2458 501 0 501 0 -49 58 c-75 87 -159 220 -225 354 -199 408 -313
944 -358 1683 -30 485 5 1543 75 2300 39 419 123 798 222 1003 25 51 53 88 95
127 l59 55 -73 -1 c-40 0 -107 -9 -148 -20z"/>
<path d="M29520 45963 c-57 -9 -159 -47 -220 -80 -40 -22 -98 -69 -150 -122
-95 -95 -143 -174 -182 -301 l-23 -75 -3 -2132 -2 -2133 385 0 c212 0 385 2
385 5 0 3 -16 31 -35 61 -31 49 -67 120 -119 236 -50 111 -120 366 -160 579
-56 298 -135 880 -172 1274 -25 261 -30 927 -10 1175 47 575 161 1017 374
1458 l30 62 -36 -1 c-21 -1 -48 -4 -62 -6z"/>
<path d="M23159 45936 c-107 -37 -178 -84 -270 -176 -70 -70 -95 -103 -128
-171 -76 -159 -71 32 -71 -2361 l0 -2147 28 4 c107 19 226 27 495 32 169 3
307 7 307 8 0 2 -19 34 -42 71 -56 92 -166 326 -212 448 -195 522 -288 1313
-273 2306 6 386 14 531 43 820 38 386 114 826 199 1163 8 32 8 32 -76 3z"/>
</g>
</svg>
