<?xml version="1.0" encoding="UTF-8" standalone="no"?>
<!-- Created with Inkscape (http://www.inkscape.org/) -->

<svg
   width="210mm"
   height="297mm"
   viewBox="0 0 210 297"
   version="1.1"
   id="svg5"
   inkscape:version="1.1.1 (3bf5ae0d25, 2021-09-20)"
   sodipodi:docname="piniata2.svg"
   xmlns:inkscape="http://www.inkscape.org/namespaces/inkscape"
   xmlns:sodipodi="http://sodipodi.sourceforge.net/DTD/sodipodi-0.dtd"
   xmlns="http://www.w3.org/2000/svg"
   xmlns:svg="http://www.w3.org/2000/svg">
  <sodipodi:namedview
     id="namedview7"
     pagecolor="#ffffff"
     bordercolor="#666666"
     borderopacity="1.0"
     inkscape:pageshadow="2"
     inkscape:pageopacity="0.0"
     inkscape:pagecheckerboard="0"
     inkscape:document-units="mm"
     showgrid="true"
     inkscape:zoom="0.48517716"
     inkscape:cx="417.37332"
     inkscape:cy="392.64009"
     inkscape:window-width="1366"
     inkscape:window-height="705"
     inkscape:window-x="-8"
     inkscape:window-y="-8"
     inkscape:window-maximized="1"
     inkscape:current-layer="layer1">
    <inkscape:grid
       type="xygrid"
       id="grid824" />
  </sodipodi:namedview>
  <defs
     id="defs2">
    <linearGradient
       id="linearGradient15562"
       inkscape:swatch="gradient">
      <stop
         style="stop-color:#f1f13e;stop-opacity:1;"
         offset="0"
         id="stop15558" />
      <stop
         style="stop-color:#f1f13e;stop-opacity:0;"
         offset="1"
         id="stop15560" />
    </linearGradient>
    <rect
       x="940"
       y="640"
       width="860"
       height="280"
       id="rect15064" />
    <rect
       x="160"
       y="300"
       width="580.00001"
       height="420.00001"
       id="rect4196" />
  </defs>
  <g
     inkscape:label="Warstwa 1"
     inkscape:groupmode="layer"
     id="layer1">
    <circle
       style="fill:#f1f13e;fill-opacity:1;fill-rule:evenodd;stroke:#f0a633;stroke-width:1.965;stroke-linecap:round;stroke-linejoin:round;stroke-miterlimit:4;stroke-dasharray:1.965, 3.93;stroke-dashoffset:0;stroke-opacity:1"
       id="path848"
       cx="105.41347"
       cy="111.31026"
       r="79.375" />
    <text
       xml:space="preserve"
       transform="matrix(0.24723526,-0.09422879,0.09422879,0.24723526,-36.105119,54.001648)"
       id="text4194"
       style="font-style:normal;font-weight:normal;font-size:74.6667px;line-height:1.25;font-family:sans-serif;white-space:pre;shape-inside:url(#rect4196);fill:#000000;fill-opacity:1;stroke:none"><tspan
         x="160"
         y="366.43676"
         id="tspan18627"><tspan
           style="font-family:'Courier New';-inkscape-font-specification:'Courier New'"
           id="tspan18625">#Helion30lat
</tspan></tspan><tspan
         x="160"
         y="460.14437"
         id="tspan18631"><tspan
           style="font-family:'Courier New';-inkscape-font-specification:'Courier New'"
           id="tspan18629">#Pocketbook</tspan></tspan></text>
    <text
       xml:space="preserve"
       transform="scale(0.26458333)"
       id="text15062"
       style="fill:black;fill-opacity:1;line-height:1.25;stroke:none;font-family:sans-serif;font-style:normal;font-weight:normal;font-size:40px;white-space:pre;shape-inside:url(#rect15064)" />
    <path
       style="fill:#f1913e;fill-opacity:1;fill-rule:evenodd;stroke:none;stroke-width:1.965;stroke-linecap:round;stroke-linejoin:round;stroke-miterlimit:4;stroke-dasharray:1.965, 3.92999;stroke-dashoffset:0;stroke-opacity:1"
       id="path17711"
       d="m 30.626188,109.19524 c 4.961531,-1.16125 10.111505,-4.31982 13.059215,-8.54139 0.425164,-0.6089 0.671131,-1.325023 1.006697,-1.987535 -0.02323,-0.520758 0.159459,-1.094055 -0.06967,-1.562274 -1.205243,-2.462901 -5.810298,-1.021334 -7.383584,0.14333 -0.541581,0.400915 -0.948534,0.957312 -1.422803,1.435967 -0.248851,0.510085 -0.604215,0.980845 -0.746556,1.530252 -1.173424,4.52924 6.248308,4.42187 8.721794,4.63814 3.196426,-0.10139 7.525372,0.4217 10.586074,-0.69549 2.157643,-0.78756 4.21385,-2.36776 5.726808,-4.06297 0.762037,-0.853841 1.325431,-1.866068 1.988146,-2.7991 0.535053,-1.095388 1.13834,-2.160003 1.605161,-3.286164 1.893297,-4.567415 2.862191,-9.734328 2.927985,-14.666685 0.01302,-0.975667 -0.109347,-1.948445 -0.164024,-2.922664 -0.518869,-1.835076 -1.0644,-3.532114 -3.435217,-2.711175 -1.456359,0.504288 -2.570806,2.487229 -3.292562,3.706759 -1.407793,4.012142 -1.136971,8.554008 1.659051,11.954037 0.711853,0.865632 1.631399,1.537128 2.447097,2.305692 0.940837,0.581983 1.832141,1.252948 2.822508,1.745949 2.649861,1.319091 5.812396,1.90858 8.737457,1.251119 2.45155,-0.551032 3.532744,-1.733579 5.573377,-3.229163 1.215826,-1.32724 2.522641,-2.576541 3.647485,-3.981722 4.302545,-5.374846 8.988888,-13.108678 10.133102,-20.002177 0.178837,-1.077447 0.06537,-2.183397 0.09806,-3.275095 -0.279069,-0.648287 -0.356187,-1.428355 -0.837205,-1.944859 -0.406461,-0.436446 -1.043903,-0.698066 -1.640062,-0.715166 -0.806336,-0.02313 -1.618247,0.249206 -2.344219,0.600882 -3.167091,1.534199 -4.418933,4.834358 -5.764617,7.811042 -0.283192,1.250233 -0.685858,2.479294 -0.849574,3.750704 -0.36271,2.816733 -0.32094,6.672006 1.953408,8.812334 1.983023,1.866167 3.70242,1.848279 6.257417,2.413585 1.355489,0.02777 2.712026,0.143309 4.066471,0.0833 4.759642,-0.210897 10.670822,-1.120217 14.670722,-3.933325 0.8977,-0.631351 1.63262,-1.467127 2.44893,-2.200693 0.75819,-1.072422 1.62585,-2.075299 2.27458,-3.217269 1.62919,-2.867867 2.8213,-6.316213 3.74774,-9.45143 0.83528,-2.826703 1.56033,-5.997845 1.93196,-8.943959 0.11959,-0.948098 0.12004,-1.907445 0.18005,-2.86117 -0.13855,-0.601673 -0.10697,-1.270312 -0.41567,-1.805022 -0.23848,-0.413073 -0.66448,-0.780203 -1.13184,-0.875469 -2.73892,-0.558292 -5.16393,2.871986 -6.5013,4.668962 -0.35618,0.780502 -0.78427,1.532038 -1.06854,2.341504 -0.99992,2.847202 -1.33585,6.379654 0.68723,8.898366 0.47988,0.597442 1.14815,1.015206 1.72222,1.522809 0.6974,0.341834 1.36847,0.743688 2.09221,1.025504 1.56483,0.609322 3.82716,1.056807 5.42554,1.32529 3.70315,0.622033 7.40618,0.865095 11.15052,1.047874 3.33997,-0.181176 8.64032,-0.37098 10.37131,-4.009662 1.04515,-2.196986 0.78832,-3.58199 0.80655,-5.940055 -0.19909,-0.939598 -0.28061,-1.912037 -0.59725,-2.818802 -0.57654,-1.651023 -2.06682,-4.069828 -4.21654,-3.77491 -0.60071,0.08241 -1.20531,0.346011 -1.65695,0.750583 -0.4346,0.38931 -0.58266,1.011073 -0.87399,1.516613 -0.57741,2.607257 -0.0953,5.279561 1.95766,7.141397 1.36675,1.239526 2.43007,1.572334 4.08268,2.33393 4.4818,1.462465 9.26926,1.136266 13.70685,-0.298286 2.22804,-0.99726 3.11841,-2.907829 3.65414,-5.157716 0.0163,-0.08077 -1.12594,-0.311476 -1.14226,-0.230706 v 0 c -0.49808,2.024631 -1.0607,3.444779 -3.09994,4.30259 -4.02007,1.109504 -8.31985,1.484665 -12.36211,0.283753 -1.41662,-0.603904 -2.57962,-0.977213 -3.79246,-1.952226 -1.81216,-1.456809 -2.25162,-3.747712 -1.8912,-5.936041 0.0482,-0.10119 0.5931,-1.506841 0.99765,-1.638435 1.68531,-0.548219 2.86235,1.750711 3.25972,2.903411 0.28633,0.830596 0.36418,1.718974 0.54627,2.578462 0.0253,1.706219 0.25682,3.590547 -0.45481,5.234244 -1.26669,2.92575 -6.29102,3.036785 -8.85509,3.251867 -3.6887,-0.185023 -7.36365,-0.429765 -11.02771,-0.916392 -1.73254,-0.230098 -3.55841,-0.495557 -5.22638,-1.07066 -0.64871,-0.223674 -1.25707,-0.550641 -1.88561,-0.825958 -0.50539,-0.39565 -1.09271,-0.704628 -1.51617,-1.186953 -2.50977,-2.858616 -1.02328,-7.056154 0.34771,-10.025837 0.97408,-1.329029 1.41465,-2.109055 2.67632,-3.162409 0.40875,-0.341262 0.89823,-0.572381 1.33938,-0.87058 0.20903,-0.141295 0.89081,-0.911762 1.25024,-0.23161 0.23505,0.444783 0.16067,0.993235 0.241,1.489852 -0.49528,3.899885 -1.30728,7.671459 -2.40864,11.452918 -0.8504,2.919805 -1.9552,6.439731 -3.40258,9.1634 -0.5693,1.071297 -1.35137,2.015175 -2.02706,3.022761 -0.74924,0.661858 -1.42166,1.422508 -2.24772,1.985571 -2.87489,1.959599 -6.41081,2.62196 -9.773559,3.133124 -1.194887,0.181634 -2.393212,0.35864 -3.59913,0.43932 -1.284726,0.08595 -2.574888,0.03992 -3.862334,0.05988 -1.987614,-0.314259 -4.005453,-0.306033 -5.655813,-1.675141 -2.063932,-1.7122 -1.939046,-5.573572 -1.643324,-7.891555 0.151484,-1.187405 0.510257,-2.339046 0.765386,-3.50857 0.966145,-2.211451 1.504186,-3.952494 3.123883,-5.781305 0.523859,-0.591492 1.216215,-1.011745 1.863116,-1.465411 0.317942,-0.222969 1.563487,-1.111975 2.138019,-0.559906 0.378693,0.363887 0.390361,0.975141 0.585541,1.46271 -0.08515,0.987896 -0.04818,1.994035 -0.255436,2.96369 -1.108544,5.186201 -3.747482,9.951151 -6.561545,14.375662 -1.08381,1.704054 -2.199169,3.391577 -3.410961,5.007126 -1.023493,1.364511 -2.191107,2.614723 -3.286662,3.922082 -0.891717,0.705787 -1.702575,1.527961 -2.675149,2.117357 -2.920915,1.770119 -6.679314,1.218925 -9.597848,-0.189351 -0.92737,-0.447482 -1.770239,-1.052272 -2.655358,-1.578406 -0.767265,-0.67182 -1.625851,-1.251824 -2.301793,-2.015461 -2.637787,-2.980013 -2.97784,-7.111921 -1.812541,-10.766552 0.90229,-1.522098 1.295058,-2.077654 2.661036,-3.189984 0.13762,-0.112064 0.225824,-0.361172 0.402823,-0.348154 0.971547,0.07145 0.997225,1.543211 1.140791,2.05001 0.01479,0.928325 0.07975,1.857206 0.04439,2.784975 -0.229032,6.009053 -1.434275,11.978166 -4.282237,17.312584 -0.615669,0.856901 -1.142846,1.784898 -1.847006,2.5707 -1.287618,1.436907 -3.280486,3.045797 -5.143092,3.695807 -2.689212,0.93848 -6.784948,0.42294 -9.57212,0.58032 -1.245285,-0.0564 -7.404496,0.13613 -8.034575,-1.68267 -0.318341,-0.91893 0.213217,-1.49581 0.603919,-2.262993 0.40286,-0.399491 0.748964,-0.865846 1.20858,-1.198477 1.284216,-0.92941 3.015612,-1.450806 4.599675,-1.341446 0.280895,0.01939 0.647547,0.0057 0.811459,0.234604 0.19154,0.267517 0.04122,0.656743 0.06184,0.985112 -0.326816,0.564965 -0.582432,1.177616 -0.980448,1.694894 -3.035215,3.944716 -7.729278,6.846826 -12.425618,8.326306 -0.07308,0.0376 0.458427,1.07116 0.531512,1.03358 z" />
    <path
       style="fill:#f1913e;fill-opacity:1;fill-rule:evenodd;stroke:none;stroke-width:1.965;stroke-linecap:round;stroke-linejoin:round;stroke-miterlimit:4;stroke-dasharray:1.965, 3.92999;stroke-dashoffset:0;stroke-opacity:1"
       id="path17711-4"
       d="m 181.91755,111.3993 c -4.92269,1.3162 -9.97113,4.63465 -12.78506,8.94653 -0.40587,0.62194 -0.62927,1.34542 -0.9439,2.01812 0.0395,0.51978 -0.12509,1.09852 0.11861,1.55933 1.28185,2.42391 5.83945,0.8387 7.37546,-0.37471 0.52875,-0.4177 0.91806,-0.98658 1.37709,-1.47986 0.23274,-0.51764 0.57317,-0.99931 0.69822,-1.55291 1.03088,-4.56379 -6.38384,-4.22384 -8.86289,-4.36246 -3.19168,0.20154 -7.5349,-0.1856 -10.55907,1.02697 -2.1319,0.85481 -4.13756,2.49869 -5.59664,4.2405 -0.7349,0.87731 -1.26628,1.90669 -1.89943,2.86005 -0.50045,1.11161 -1.07007,2.19462 -1.50136,3.33486 -1.7492,4.62452 -2.55565,9.81926 -2.4668,14.75126 0.0176,0.97559 0.17037,1.94406 0.25556,2.91608 0.57613,1.81792 1.17459,3.49701 3.51851,2.60216 1.43984,-0.54968 2.49158,-2.56658 3.17475,-3.80814 1.28134,-4.05431 0.86828,-8.58544 -2.03295,-11.89616 -0.73864,-0.84289 -1.67878,-1.48523 -2.51817,-2.22785 -0.95861,-0.55221 -1.87051,-1.1949 -2.87585,-1.65662 -2.6899,-1.23537 -5.86936,-1.72544 -8.77238,-0.97661 -2.43307,0.6276 -3.47667,1.84346 -5.46942,3.40227 -1.17361,1.3647 -2.44063,2.65435 -3.52087,4.0941 -4.13196,5.50708 -8.57357,13.38401 -9.50114,20.30999 -0.14497,1.08252 0.003,2.18437 0.005,3.27656 0.29925,0.63922 0.40079,1.41649 0.89776,1.91765 0.41994,0.4235 1.06527,0.66501 1.66167,0.66341 0.80667,-0.002 1.60965,-0.29981 2.32424,-0.67406 3.11744,-1.63273 4.26522,-4.97051 5.51694,-7.98791 0.24386,-1.2585 0.6078,-2.49958 0.73158,-3.77549 0.27424,-2.82672 0.11164,-6.67878 -2.22868,-8.74677 -2.04055,-1.80309 -3.75854,-1.73132 -6.33,-2.21626 -1.35569,0.0147 -2.71518,-0.0582 -4.06708,0.0442 -4.7507,0.35999 -10.63047,1.45416 -14.54022,4.39127 -0.87747,0.65918 -1.58583,1.51759 -2.37875,2.27637 -0.7242,1.09566 -1.56,2.12525 -2.17261,3.28699 -1.53849,2.91753 -2.62192,6.40155 -3.44963,9.56426 -0.74626,2.8515 -1.37156,6.04382 -1.65065,9.00013 -0.0898,0.95138 -0.0602,1.91026 -0.0903,2.86541 0.15734,0.59703 0.14674,1.26633 0.47205,1.7911 0.25131,0.40539 0.68861,0.75899 1.15873,0.83956 2.75507,0.47216 5.07136,-3.03245 6.35175,-4.87046 0.33154,-0.79128 0.73586,-1.55587 0.99461,-2.37385 0.91018,-2.87714 1.13522,-6.41839 -0.96582,-8.87244 -0.49837,-0.58211 -1.17941,-0.97873 -1.76911,-1.46808 -0.70777,-0.3198 -1.39111,-0.70043 -2.12332,-0.95941 -1.58317,-0.55998 -3.85841,-0.93633 -5.464421,-1.15457 -3.720829,-0.50566 -7.429658,-0.63252 -11.177887,-0.69784 -3.33265,0.28578 -8.624446,0.64164 -10.240526,4.33279 -0.975769,2.22867 -0.675651,3.60494 -0.619955,5.96242 0.228445,0.9329 0.340407,1.90231 0.685315,2.7987 0.62801,1.63213 2.193378,4.00304 4.332797,3.64088 0.597832,-0.10119 1.193872,-0.38362 1.632608,-0.80215 0.422183,-0.40274 0.55068,-1.02885 0.82602,-1.54327 0.495399,-2.62407 -0.07024,-5.27996 -2.180553,-7.07652 -1.404933,-1.19608 -2.478163,-1.49539 -4.153834,-2.2048 -4.525441,-1.32127 -9.300323,-0.84516 -13.690764,0.72779 -2.195685,1.06661 -3.025729,3.00415 -3.49067,5.26973 -0.01376,0.0813 1.135151,0.27603 1.148931,0.19479 v 0 c 0.43437,-2.03926 0.952198,-3.47634 2.963547,-4.39765 3.983315,-1.23498 8.269222,-1.74474 12.34714,-0.67113 1.434854,0.55921 2.608984,0.89588 3.851791,1.83239 1.856935,1.39929 2.36799,3.67529 2.076343,5.87385 -0.045,0.10265 -0.545574,1.52469 -0.945801,1.66889 -1.667297,0.60078 -2.915821,-1.66012 -3.349129,-2.7998 -0.312225,-0.82121 -0.417884,-1.70671 -0.626826,-2.56007 -0.07877,-1.70459 -0.369244,-3.58073 0.290512,-5.24592 1.174357,-2.96402 6.192737,-3.2325 8.748805,-3.52785 3.692687,0.0693 7.373503,0.19874 11.051016,0.57026 1.738901,0.17568 3.572191,0.38378 5.257371,0.90631 0.6554,0.20324 1.27371,0.51096 1.91058,0.76645 0.51754,0.37961 1.11426,0.67003 1.55263,1.13884 2.59814,2.77854 1.24396,7.02061 -0.0333,10.03181 -0.93194,1.35891 -1.34784,2.15237 -2.57587,3.24475 -0.39786,0.3539 -0.87985,0.60025 -1.31144,0.91214 -0.2045,0.14777 -0.86179,0.93923 -1.24236,0.27068 -0.24888,-0.43719 -0.19173,-0.98771 -0.28759,-1.48156 0.37279,-3.9135 1.06617,-7.70867 2.04846,-11.5228 0.75845,-2.94503 1.75237,-6.49785 3.11367,-9.26555 0.53543,-1.08862 1.28753,-2.05655 1.93131,-3.08482 0.72812,-0.68502 1.37637,-1.46637 2.18437,-2.05505 2.81205,-2.04875 6.32547,-2.82162 9.67055,-3.43795 1.18861,-0.219 2.38079,-0.43348 3.58359,-0.55192 1.2814,-0.12613 2.57237,-0.1206 3.85856,-0.18095 1.99649,0.25181 4.01308,0.18034 5.70554,1.49703 2.11659,1.64667 2.11281,5.51006 1.88989,7.83617 -0.11419,1.19157 -0.43668,2.3539 -0.65503,3.53084 -0.89635,2.24065 -1.37955,3.9977 -2.94113,5.87638 -0.50505,0.60763 -1.1839,1.04938 -1.81626,1.5231 -0.31079,0.23282 -1.52787,1.16044 -2.11942,0.62665 -0.38991,-0.35184 -0.42073,-0.96243 -0.6311,-1.44364 0.0541,-0.99007 -0.0143,-1.99456 0.1624,-2.97024 0.94544,-5.2184 3.43372,-10.06373 6.10771,-14.57428 1.02986,-1.73718 2.09177,-3.45884 3.25232,-5.11159 0.98022,-1.39592 2.10808,-2.68211 3.16211,-4.02317 0.86916,-0.7334 1.65384,-1.58058 2.60746,-2.20018 2.864,-1.8608 6.63783,-1.42769 9.59907,-0.11159 0.94094,0.41819 1.80235,0.99627 2.70353,1.49439 0.78795,0.64744 1.66429,1.20025 2.36384,1.94232 2.7299,2.89587 3.19931,7.01508 2.14914,10.70444 -0.85413,1.54964 -1.22929,2.11724 -2.55973,3.27184 -0.13404,0.11632 -0.2144,0.36807 -0.39172,0.3606 -0.9733,-0.0409 -1.0451,-1.51119 -1.20449,-2.01324 -0.0439,-0.9274 -0.13792,-1.85379 -0.13166,-2.78221 0.0406,-6.01329 1.0581,-12.01724 3.73745,-17.43831 0.5885,-0.87578 1.08633,-1.81984 1.76551,-2.62734 1.24195,-1.47656 3.1834,-3.14712 5.02472,-3.8552 2.65847,-1.02231 6.76835,-0.63541 9.54922,-0.88009 1.24644,0.0173 7.39659,-0.36817 8.08338,1.43 0.34698,0.9085 -0.16623,1.50175 -0.53269,2.28081 -0.39014,0.41192 -0.72146,0.8889 -1.17042,1.23577 -1.25445,0.96921 -2.96865,1.54462 -4.55536,1.48496 -0.28137,-0.0106 -0.64742,0.0143 -0.81842,-0.20904 -0.19983,-0.26139 -0.0618,-0.65513 -0.0927,-0.98269 0.30895,-0.57494 0.54523,-1.1953 0.92684,-1.7248 2.91007,-4.03793 7.51086,-7.08574 12.15851,-8.7117 0.0719,-0.0399 -0.49178,-1.05626 -0.56365,-1.01641 z" />
    <path
       style="fill:none;fill-opacity:1;fill-rule:evenodd;stroke:#ff0000;stroke-width:0.665001;stroke-linecap:round;stroke-linejoin:round;stroke-miterlimit:4;stroke-dasharray:none;stroke-dashoffset:0;stroke-opacity:1"
       id="path18227"
       d="m 61.594996,176.87587 c 0.639815,0.39015 1.248494,0.83669 1.919446,1.17046 5.78984,2.88023 13.136004,5.19223 19.651001,4.76182 1.806871,-0.11937 3.569538,-0.61199 5.354309,-0.91798 4.458594,-2.03576 2.611128,-0.74978 5.719932,-3.58947 0.08119,-0.089 -1.176819,-1.23709 -1.258004,-1.14813 v 0 c -2.936145,2.1442 -1.210424,1.15893 -5.323724,2.68287 -1.277072,0.23088 -2.535634,0.61723 -3.831216,0.69266 -5.422472,0.31571 -10.253015,-1.10067 -15.377001,-2.58102 -1.339133,-0.38689 -2.679809,-0.76951 -4.009298,-1.18834 -0.706488,-0.22256 -1.397976,-0.49021 -2.096966,-0.73531 -0.06028,-0.0529 -0.808757,0.79952 -0.748479,0.85244 z" />
    <path
       style="fill:none;fill-opacity:1;fill-rule:evenodd;stroke:#ff0000;stroke-width:0.665001;stroke-linecap:round;stroke-linejoin:round;stroke-miterlimit:4;stroke-dasharray:none;stroke-dashoffset:0;stroke-opacity:1"
       id="path18229"
       d="m 92.530131,174.47992 c 2.11151,1.80991 4.94034,2.77504 7.600119,3.43415 1.16302,0.2882 2.34924,0.47303 3.52386,0.70954 4.18996,0.35284 9.87551,0.87405 13.62946,-1.54781 1.82231,-1.17567 1.93394,-1.90063 2.98118,-3.73834 0.87119,-2.62138 1.08688,-2.96273 1.58247,-5.7173 0.16262,-0.90389 0.2398,-1.82109 0.3597,-2.73164 0.0145,-0.12022 -1.68567,-0.32552 -1.70018,-0.2053 v 0 c -0.42279,2.69404 -0.84542,5.39597 -1.69794,7.99699 -0.3188,0.5996 -0.53199,1.26867 -0.9564,1.79879 -0.90651,1.13228 -2.21499,1.69422 -3.58956,2.01197 -0.94228,0.21783 -1.9134,0.29441 -2.87736,0.37267 -2.69662,0.21893 -4.19531,0.0737 -6.98648,-0.0244 -1.15308,-0.16686 -2.31398,-0.28658 -3.45924,-0.50058 -2.10198,-0.39278 -3.06228,-0.73944 -5.011079,-1.38889 -0.515205,-0.1717 -1.038638,-0.32261 -1.540727,-0.52954 -0.363104,-0.14965 -0.664393,-0.42449 -1.019472,-0.59062 -0.04598,-0.0593 -0.884332,0.59101 -0.838351,0.65029 z" />
    <path
       style="fill:none;fill-opacity:1;fill-rule:evenodd;stroke:#ff0000;stroke-width:0.665001;stroke-linecap:round;stroke-linejoin:round;stroke-miterlimit:4;stroke-dasharray:none;stroke-dashoffset:0;stroke-opacity:1"
       id="path18241"
       d="m 122.49677,166.51473 c 2.26801,1.22156 4.75485,2.26155 7.33049,2.60312 0.71973,0.0954 1.44907,0.0932 2.17361,0.13976 0.96923,-0.089 1.9566,-0.0602 2.90767,-0.26701 2.90766,-0.63232 5.52359,-2.39111 7.55508,-4.51399 1.51341,-1.5815 1.97899,-2.55111 3.09222,-4.37207 1.23855,-2.65541 0.73593,-1.35695 1.55558,-3.87656 0.0298,-0.10019 -1.38706,-0.52126 -1.41684,-0.42108 v 0 c -0.90367,2.29167 -0.37846,1.10404 -1.60962,3.54765 -1.0671,1.64708 -1.53785,2.54818 -2.94248,3.97703 -1.90095,1.93373 -4.1815,3.38385 -6.79969,4.1203 -0.62087,0.17464 -1.27271,0.21002 -1.90906,0.31503 -0.67096,-0.005 -1.3442,0.0395 -2.01286,-0.0162 -2.51369,-0.20938 -4.83979,-1.35407 -7.21659,-2.09777 -0.0609,-0.05 -0.76845,0.81175 -0.70751,0.86178 z" />
    <path
       style="fill:none;fill-opacity:1;fill-rule:evenodd;stroke:#ff0000;stroke-width:0.665001;stroke-linecap:round;stroke-linejoin:round;stroke-miterlimit:4;stroke-dasharray:none;stroke-dashoffset:0;stroke-opacity:1"
       id="path18251"
       d="m 174.33938,141.98421 c -0.70063,1.71711 -1.76637,2.32322 -3.34351,3.32542 -2.26042,1.43639 -2.95414,1.76008 -5.35074,3.06616 -5.11905,2.51364 -10.62608,4.24353 -16.26113,5.13015 -0.70781,0.11137 -1.4227,0.17188 -2.13405,0.25783 0.18202,-0.1292 -2.12439,0.21162 -1.89091,-0.28583 0.0373,-0.0794 0.14393,-0.10279 0.20292,-0.16777 0.27117,-0.29872 0.5131,-0.62306 0.78266,-0.92323 0.0472,-0.0697 -0.93877,-0.73793 -0.98602,-0.66821 v 0 c -0.50137,0.60763 -1.21604,1.35069 -1.03017,2.24059 0.30467,1.45871 2.47342,1.24415 3.42385,1.31079 0.77012,-0.0388 1.54365,-0.0341 2.31035,-0.11633 5.87551,-0.62995 11.53446,-2.61644 16.75226,-5.33566 2.72323,-1.5764 6.29277,-3.41345 8.02106,-6.17201 0.25925,-0.41381 0.40131,-0.91121 0.55428,-1.37076 0.0206,-0.0743 -1.03026,-0.36545 -1.05085,-0.29114 z" />
    <path
       style="fill:none;fill-opacity:1;fill-rule:evenodd;stroke:#ff0000;stroke-width:0.665001;stroke-linecap:round;stroke-linejoin:round;stroke-miterlimit:4;stroke-dasharray:none;stroke-dashoffset:0;stroke-opacity:1"
       id="path18227-9"
       d="m 147.19279,43.721351 c -0.63781,-0.39341 -1.2442,-0.84305 -1.91344,-1.18024 -5.77507,-2.909737 -13.10934,-5.259193 -19.62645,-4.862034 -1.80746,0.110148 -3.57262,0.593767 -5.35892,0.890646 -4.46893,2.012982 -2.61492,0.736446 -5.73818,3.560235 -0.0816,0.08858 1.17049,1.243079 1.25213,1.154535 v 0 c 2.94705,-2.12919 1.21632,-1.152739 5.33735,-2.655669 1.27823,-0.22436 2.53875,-0.604283 3.8347,-0.673101 5.42401,-0.288036 10.24726,1.152975 15.36363,2.659453 1.33714,0.393718 2.67584,0.783175 4.00318,1.208783 0.70534,0.226162 1.39545,0.497338 2.09318,0.746001 0.06,0.05321 0.81283,-0.795382 0.75282,-0.848609 z" />
    <path
       style="fill:none;fill-opacity:1;fill-rule:evenodd;stroke:#ff0000;stroke-width:0.665001;stroke-linecap:round;stroke-linejoin:round;stroke-miterlimit:4;stroke-dasharray:none;stroke-dashoffset:0;stroke-opacity:1"
       id="path18229-8"
       d="m 116.24584,45.959412 c -2.10225,-1.820661 -4.92611,-2.800213 -7.5825,-3.472887 -1.16153,-0.294131 -2.34679,-0.485012 -3.52019,-0.727513 -4.1881,-0.374216 -9.87092,-0.924432 -13.63718,1.478241 -1.828285,1.166356 -1.943613,1.890737 -3.000217,3.723079 -0.884555,2.6169 -1.101984,2.957145 -1.611624,5.70915 -0.16723,0.903049 -0.24909,1.819843 -0.373634,2.729769 -0.01511,0.120145 1.683987,0.334118 1.69911,0.213973 v 0 c 0.436532,-2.691847 0.872944,-5.391585 1.738725,-7.988221 0.321856,-0.597966 0.538457,-1.265939 0.965567,-1.793887 0.912276,-1.127639 2.223606,-1.682895 3.59978,-1.993626 0.943379,-0.213019 1.914877,-0.284643 2.879224,-0.357983 2.697699,-0.205166 4.195629,-0.05229 6.986269,0.06005 1.15221,0.172742 2.31248,0.298384 3.45664,0.518225 2.09994,0.403501 3.05846,0.755057 5.00392,1.414443 0.51432,0.174327 1.03698,0.327906 1.538,0.537395 0.36234,0.151501 0.66222,0.427875 1.01645,0.595815 0.0457,0.05953 0.88733,-0.58649 0.84166,-0.646004 z" />
    <path
       style="fill:none;fill-opacity:1;fill-rule:evenodd;stroke:#ff0000;stroke-width:0.665001;stroke-linecap:round;stroke-linejoin:round;stroke-miterlimit:4;stroke-dasharray:none;stroke-dashoffset:0;stroke-opacity:1"
       id="path18241-0"
       d="m 86.238947,53.771583 c -2.261747,-1.233117 -4.743248,-2.285784 -7.317112,-2.640492 -0.719233,-0.09907 -1.448575,-0.100593 -2.172868,-0.15085 -0.969672,0.08405 -1.956882,0.05022 -2.908995,0.252169 -2.910849,0.617475 -5.535723,2.362893 -7.57802,4.475379 -1.52146,1.573757 -1.991982,2.540978 -3.114489,4.356234 -1.252084,2.649055 -0.742845,1.353177 -1.575342,3.868572 -0.03031,0.100036 1.384382,0.528331 1.414673,0.428304 v 0 c 0.915353,-2.287029 0.384089,-1.102094 1.627702,-3.53939 1.075491,-1.641613 1.550833,-2.5403 2.962736,-3.961963 1.910797,-1.924005 4.198717,-3.362469 6.820631,-4.085549 0.621753,-0.171469 1.273765,-0.203523 1.910643,-0.305284 0.670925,0.0084 1.344384,-0.03264 2.012751,0.02647 2.512589,0.222204 4.832817,1.378749 7.205791,2.134568 0.06064,0.05031 0.772583,-0.807818 0.711899,-0.858159 z" />
    <path
       style="fill:none;fill-opacity:1;fill-rule:evenodd;stroke:#ff0000;stroke-width:0.665001;stroke-linecap:round;stroke-linejoin:round;stroke-miterlimit:4;stroke-dasharray:none;stroke-dashoffset:0;stroke-opacity:1"
       id="path18251-8"
       d="m 34.271832,78.037239 c 0.709383,-1.713512 1.778202,-2.314176 3.360436,-3.308315 2.26772,-1.424837 2.963083,-1.744983 5.366316,-3.038816 5.13181,-2.487486 10.647596,-4.189252 16.287097,-5.047106 0.708369,-0.107756 1.423558,-0.164617 2.135338,-0.246936 -0.182677,0.128269 2.125442,-0.200777 1.889427,0.295475 -0.03771,0.07921 -0.144453,0.102054 -0.203774,0.166732 -0.272691,0.297333 -0.516273,0.620434 -0.787361,0.919224 -0.04756,0.06946 0.934992,0.742711 0.982598,0.673233 v 0 c 0.504464,-0.605063 1.222916,-1.344467 1.04159,-2.235304 -0.297223,-1.460245 -2.46704,-1.256755 -3.417117,-1.328244 -0.770308,0.03487 -1.543804,0.02622 -2.310914,0.104539 -5.878648,0.59996 -11.547661,2.557547 -16.779269,5.250106 -2.731238,1.562484 -6.310106,3.381295 -8.05245,6.131 -0.261358,0.412481 -0.405955,0.90915 -0.561268,1.367913 -0.02098,0.07419 1.028382,0.370703 1.049351,0.296499 z" />
    <path
       style="fill:#550000;fill-opacity:1;fill-rule:evenodd;stroke:none;stroke-width:0.665001;stroke-linecap:round;stroke-linejoin:round;stroke-miterlimit:4;stroke-dasharray:none;stroke-dashoffset:0;stroke-opacity:1"
       id="path18484"
       d="m 98.479089,30.85423 c 0.459529,-0.641734 0.967817,-1.251215 1.378583,-1.925203 2.570758,-4.218138 4.287108,-8.855645 5.578778,-13.608595 0.43925,-1.616339 0.87513,-3.242262 1.11091,-4.900546 0.1829,-1.2863691 0.0931,-2.5969437 0.13973,-3.8954155 -0.30948,-0.8562582 -0.3766,-1.8445982 -0.92843,-2.5687732 -1.25234,-1.643439 -3.26281,-1.387295 -4.97821,-0.911925 -1.236725,0.342722 -2.391949,0.943189 -3.531229,1.533946 -3.232689,1.6762641 -4.444833,2.7318979 -7.358943,4.8630513 -2.293194,2.1310704 -4.991733,4.4338224 -5.791658,7.6387894 -0.186349,0.746628 -0.190521,2.1106 0.886719,2.372127 0.636617,0.154555 1.303475,-0.132775 1.955213,-0.199163 2.213232,-0.978096 4.015579,-2.58222 5.856369,-4.107691 0.08022,-0.09083 -1.204372,-1.225265 -1.284589,-1.134431 v 0 c -1.641012,1.462437 -3.254697,2.981812 -5.193228,4.054649 -0.430234,0.409088 -0.824341,0.86068 -0.897842,0.564367 -0.198142,-0.798806 0.931468,-2.455065 1.149889,-2.758588 1.627701,-2.261902 2.678322,-2.977836 4.817851,-4.911398 3.236902,-2.332043 6.442744,-4.6697666 10.034538,-6.4406227 0.63555,-0.313342 2.04728,-1.125614 2.75384,-0.14604 0.4084,0.566202 0.35229,1.35107 0.52843,2.0266056 -0.14041,1.187722 -0.18894,2.3899465 -0.42121,3.5631659 -0.31805,1.6063972 -0.7899,3.1788592 -1.2261,4.7572722 -1.46481,5.30042 -3.094998,10.604176 -5.619573,15.51015 -0.04414,0.07355 0.996019,0.697819 1.040162,0.624268 z" />
  </g>
</svg>
