<?xml version="1.0" encoding="UTF-8" standalone="no"?>
<!-- Created with Inkscape (http://www.inkscape.org/) -->

<svg
   width="210mm"
   height="297mm"
   viewBox="0 0 210 297"
   version="1.1"
   id="svg5"
   inkscape:version="1.1.1 (3bf5ae0d25, 2021-09-20)"
   sodipodi:docname="piniata.svg"
   xmlns:inkscape="http://www.inkscape.org/namespaces/inkscape"
   xmlns:sodipodi="http://sodipodi.sourceforge.net/DTD/sodipodi-0.dtd"
   xmlns:xlink="http://www.w3.org/1999/xlink"
   xmlns="http://www.w3.org/2000/svg"
   xmlns:svg="http://www.w3.org/2000/svg">
  <sodipodi:namedview
     id="namedview7"
     pagecolor="#ffffff"
     bordercolor="#666666"
     borderopacity="1.0"
     inkscape:pageshadow="2"
     inkscape:pageopacity="0.0"
     inkscape:pagecheckerboard="0"
     inkscape:document-units="mm"
     showgrid="false"
     inkscape:zoom="0.49143921"
     inkscape:cx="178.04847"
     inkscape:cy="513.79701"
     inkscape:window-width="1366"
     inkscape:window-height="705"
     inkscape:window-x="-8"
     inkscape:window-y="-8"
     inkscape:window-maximized="1"
     inkscape:current-layer="layer1" />
  <defs
     id="defs2">
    <linearGradient
       inkscape:collect="always"
       id="linearGradient10400">
      <stop
         style="stop-color:#ff0024;stop-opacity:1;"
         offset="0"
         id="stop10396" />
      <stop
         style="stop-color:#ff0024;stop-opacity:0;"
         offset="1"
         id="stop10398" />
    </linearGradient>
    <linearGradient
       id="linearGradient10342"
       inkscape:swatch="solid">
      <stop
         style="stop-color:#ff0024;stop-opacity:1;"
         offset="0"
         id="stop10340" />
    </linearGradient>
    <rect
       x="58.284676"
       y="172.69534"
       width="192.12356"
       height="271.99515"
       id="rect3488" />
    <linearGradient
       inkscape:collect="always"
       xlink:href="#linearGradient10400"
       id="linearGradient10402"
       x1="74.927331"
       y1="272.58594"
       x2="186.01798"
       y2="272.58594"
       gradientUnits="userSpaceOnUse" />
  </defs>
  <g
     inkscape:label="Warstwa 1"
     inkscape:groupmode="layer"
     id="layer1">
    <text
       xml:space="preserve"
       transform="matrix(1.2924401,0,0,1.3851301,-79.463876,-267.89519)"
       id="text3486"
       style="font-style:normal;font-variant:normal;font-weight:normal;font-stretch:normal;font-size:192px;line-height:1.25;font-family:'MV Boli';-inkscape-font-specification:'MV Boli';white-space:pre;shape-inside:url(#rect3488);fill:#d40000;fill-opacity:1;stroke:#f2ba63;stroke-width:4.40315;stroke-linecap:round;stroke-linejoin:round;stroke-miterlimit:4;stroke-dasharray:4.40315, 8.8063;stroke-dashoffset:0;stroke-opacity:1"><tspan
         x="58.285156"
         y="342.5635"
         id="tspan23052">H</tspan></text>
    <path
       sodipodi:type="spiral"
       style="fill:none;fill-rule:evenodd;stroke:#ffec00;stroke-opacity:1"
       id="path20389"
       sodipodi:cx="95.097595"
       sodipodi:cy="289.95795"
       sodipodi:expansion="1"
       sodipodi:revolution="3.0272093"
       sodipodi:radius="10.067788"
       sodipodi:argument="-18.191668"
       sodipodi:t0="0"
       d="m 95.097595,289.95795 c 0.395837,0.30587 -0.21702,0.68448 -0.508382,0.6579 -0.789575,-0.072 -1.039063,-1.03956 -0.807432,-1.67467 0.414332,-1.13606 1.828966,-1.44429 2.840962,-0.95695 1.485144,0.71518 1.85982,2.62846 1.106481,4.00725 -1.004083,1.83771 -3.431458,2.27964 -5.173542,1.256 -2.192235,-1.28814 -2.701657,-4.2361 -1.40553,-6.33983 1.569783,-2.5479 5.041674,-3.12494 7.506121,-1.55505 2.904267,1.85005 3.549027,5.84782 1.704577,8.67241 -2.129482,3.2611 -6.65435,3.97363 -9.838698,1.8541 -3.618259,-2.40835 -4.398621,-7.46115 -2.003629,-11.00499 2.68682,-3.97565 8.268154,-4.82387 12.171277,-2.15315 4.33321,2.965 5.24933,9.0753 2.30268,13.33757 -0.32526,0.47048 -0.69108,0.91283 -1.09183,1.32092"
       transform="matrix(1.2924401,0,0,1.3851301,-77.329559,-256.17234)" />
    <path
       sodipodi:type="spiral"
       style="fill:none;fill-rule:evenodd;stroke:#ffec00;stroke-opacity:1"
       id="path20389-9"
       sodipodi:cx="95.097595"
       sodipodi:cy="289.95795"
       sodipodi:expansion="1"
       sodipodi:revolution="3.0272093"
       sodipodi:radius="10.067788"
       sodipodi:argument="-18.191668"
       sodipodi:t0="0"
       transform="matrix(1.1637926,0,0,1.2166307,-40.16529,-211.3792)"
       d="m 95.097595,289.95795 c 0.395837,0.30587 -0.21702,0.68448 -0.508382,0.6579 -0.789575,-0.072 -1.039063,-1.03956 -0.807432,-1.67467 0.414332,-1.13606 1.828966,-1.44429 2.840962,-0.95695 1.485144,0.71518 1.85982,2.62846 1.106481,4.00725 -1.004083,1.83771 -3.431458,2.27964 -5.173542,1.256 -2.192235,-1.28814 -2.701657,-4.2361 -1.40553,-6.33983 1.569783,-2.5479 5.041674,-3.12494 7.506121,-1.55505 2.904267,1.85005 3.549027,5.84782 1.704577,8.67241 -2.129482,3.2611 -6.65435,3.97363 -9.838698,1.8541 -3.618259,-2.40835 -4.398621,-7.46115 -2.003629,-11.00499 2.68682,-3.97565 8.268154,-4.82387 12.171277,-2.15315 4.33321,2.965 5.24933,9.0753 2.30268,13.33757 -0.32526,0.47048 -0.69108,0.91283 -1.09183,1.32092"
       inkscape:transform-center-x="28.107378"
       inkscape:transform-center-y="4.1099439" />
    <path
       sodipodi:type="spiral"
       style="fill:none;fill-rule:evenodd;stroke:#ffec00;stroke-opacity:1"
       id="path20389-9-1"
       sodipodi:cx="95.097595"
       sodipodi:cy="289.95795"
       sodipodi:expansion="1"
       sodipodi:revolution="3.0272093"
       sodipodi:radius="10.067788"
       sodipodi:argument="-18.191668"
       sodipodi:t0="0"
       transform="matrix(1.1637926,0,0,1.2166307,30.59635,-227.89075)"
       inkscape:transform-center-x="28.107378"
       inkscape:transform-center-y="4.1099394"
       d="m 95.097595,289.95795 c 0.395837,0.30587 -0.21702,0.68448 -0.508382,0.6579 -0.789575,-0.072 -1.039063,-1.03956 -0.807432,-1.67467 0.414332,-1.13606 1.828966,-1.44429 2.840962,-0.95695 1.485144,0.71518 1.85982,2.62846 1.106481,4.00725 -1.004083,1.83771 -3.431458,2.27964 -5.173542,1.256 -2.192235,-1.28814 -2.701657,-4.2361 -1.40553,-6.33983 1.569783,-2.5479 5.041674,-3.12494 7.506121,-1.55505 2.904267,1.85005 3.549027,5.84782 1.704577,8.67241 -2.129482,3.2611 -6.65435,3.97363 -9.838698,1.8541 -3.618259,-2.40835 -4.398621,-7.46115 -2.003629,-11.00499 2.68682,-3.97565 8.268154,-4.82387 12.171277,-2.15315 4.33321,2.965 5.24933,9.0753 2.30268,13.33757 -0.32526,0.47048 -0.69108,0.91283 -1.09183,1.32092" />
    <path
       sodipodi:type="spiral"
       style="fill:none;fill-rule:evenodd;stroke:#ffec00;stroke-opacity:1"
       id="path20389-9-64"
       sodipodi:cx="95.097595"
       sodipodi:cy="289.95795"
       sodipodi:expansion="1"
       sodipodi:revolution="3.0272093"
       sodipodi:radius="10.067788"
       sodipodi:argument="-18.191668"
       sodipodi:t0="0"
       transform="matrix(1.1637926,0,0,1.2166307,52.68039,-233.89719)"
       inkscape:transform-center-x="28.107378"
       inkscape:transform-center-y="4.10994"
       d="m 95.097595,289.95795 c 0.395837,0.30587 -0.21702,0.68448 -0.508382,0.6579 -0.789575,-0.072 -1.039063,-1.03956 -0.807432,-1.67467 0.414332,-1.13606 1.828966,-1.44429 2.840962,-0.95695 1.485144,0.71518 1.85982,2.62846 1.106481,4.00725 -1.004083,1.83771 -3.431458,2.27964 -5.173542,1.256 -2.192235,-1.28814 -2.701657,-4.2361 -1.40553,-6.33983 1.569783,-2.5479 5.041674,-3.12494 7.506121,-1.55505 2.904267,1.85005 3.549027,5.84782 1.704577,8.67241 -2.129482,3.2611 -6.65435,3.97363 -9.838698,1.8541 -3.618259,-2.40835 -4.398621,-7.46115 -2.003629,-11.00499 2.68682,-3.97565 8.268154,-4.82387 12.171277,-2.15315 4.33321,2.965 5.24933,9.0753 2.30268,13.33757 -0.32526,0.47048 -0.69108,0.91283 -1.09183,1.32092" />
    <path
       sodipodi:type="spiral"
       style="fill:none;fill-rule:evenodd;stroke:#ffec00;stroke-opacity:1"
       id="path20389-9-3"
       sodipodi:cx="95.097595"
       sodipodi:cy="289.95795"
       sodipodi:expansion="1"
       sodipodi:revolution="3.0272093"
       sodipodi:radius="10.067788"
       sodipodi:argument="-18.191668"
       sodipodi:t0="0"
       transform="matrix(0.96151424,0,0,1.0502042,-16.958648,-278.54703)"
       inkscape:transform-center-x="23.222046"
       inkscape:transform-center-y="3.547722"
       d="m 95.097595,289.95795 c 0.395837,0.30587 -0.21702,0.68448 -0.508382,0.6579 -0.789575,-0.072 -1.039063,-1.03956 -0.807432,-1.67467 0.414332,-1.13606 1.828966,-1.44429 2.840962,-0.95695 1.485144,0.71518 1.85982,2.62846 1.106481,4.00725 -1.004083,1.83771 -3.431458,2.27964 -5.173542,1.256 -2.192235,-1.28814 -2.701657,-4.2361 -1.40553,-6.33983 1.569783,-2.5479 5.041674,-3.12494 7.506121,-1.55505 2.904267,1.85005 3.549027,5.84782 1.704577,8.67241 -2.129482,3.2611 -6.65435,3.97363 -9.838698,1.8541 -3.618259,-2.40835 -4.398621,-7.46115 -2.003629,-11.00499 2.68682,-3.97565 8.268154,-4.82387 12.171277,-2.15315 4.33321,2.965 5.24933,9.0753 2.30268,13.33757 -0.32526,0.47048 -0.69108,0.91283 -1.09183,1.32092" />
    <path
       sodipodi:type="spiral"
       style="fill:none;fill-rule:evenodd;stroke:#ffec00;stroke-opacity:1"
       id="path20389-9-6"
       sodipodi:cx="95.097595"
       sodipodi:cy="289.95795"
       sodipodi:expansion="1"
       sodipodi:revolution="3.0272093"
       sodipodi:radius="10.067788"
       sodipodi:argument="-18.191668"
       sodipodi:t0="0"
       transform="matrix(1.0639,0,0,1.0816589,81.403257,-281.06761)"
       inkscape:transform-center-x="25.694816"
       inkscape:transform-center-y="3.6539854"
       d="m 95.097595,289.95795 c 0.395837,0.30587 -0.21702,0.68448 -0.508382,0.6579 -0.789575,-0.072 -1.039063,-1.03956 -0.807432,-1.67467 0.414332,-1.13606 1.828966,-1.44429 2.840962,-0.95695 1.485144,0.71518 1.85982,2.62846 1.106481,4.00725 -1.004083,1.83771 -3.431458,2.27964 -5.173542,1.256 -2.192235,-1.28814 -2.701657,-4.2361 -1.40553,-6.33983 1.569783,-2.5479 5.041674,-3.12494 7.506121,-1.55505 2.904267,1.85005 3.549027,5.84782 1.704577,8.67241 -2.129482,3.2611 -6.65435,3.97363 -9.838698,1.8541 -3.618259,-2.40835 -4.398621,-7.46115 -2.003629,-11.00499 2.68682,-3.97565 8.268154,-4.82387 12.171277,-2.15315 4.33321,2.965 5.24933,9.0753 2.30268,13.33757 -0.32526,0.47048 -0.69108,0.91283 -1.09183,1.32092" />
    <path
       sodipodi:type="spiral"
       style="fill:none;fill-rule:evenodd;stroke:#ffec00;stroke-opacity:1"
       id="path20389-9-4"
       sodipodi:cx="95.097595"
       sodipodi:cy="289.95795"
       sodipodi:expansion="1"
       sodipodi:revolution="3.0272093"
       sodipodi:radius="10.067788"
       sodipodi:argument="-18.191668"
       sodipodi:t0="0"
       transform="matrix(1.0491499,0,0,1.0820891,43.199891,-116.50035)"
       inkscape:transform-center-x="25.338579"
       inkscape:transform-center-y="3.6554473"
       d="m 95.097595,289.95795 c 0.395837,0.30587 -0.21702,0.68448 -0.508382,0.6579 -0.789575,-0.072 -1.039063,-1.03956 -0.807432,-1.67467 0.414332,-1.13606 1.828966,-1.44429 2.840962,-0.95695 1.485144,0.71518 1.85982,2.62846 1.106481,4.00725 -1.004083,1.83771 -3.431458,2.27964 -5.173542,1.256 -2.192235,-1.28814 -2.701657,-4.2361 -1.40553,-6.33983 1.569783,-2.5479 5.041674,-3.12494 7.506121,-1.55505 2.904267,1.85005 3.549027,5.84782 1.704577,8.67241 -2.129482,3.2611 -6.65435,3.97363 -9.838698,1.8541 -3.618259,-2.40835 -4.398621,-7.46115 -2.003629,-11.00499 2.68682,-3.97565 8.268154,-4.82387 12.171277,-2.15315 4.33321,2.965 5.24933,9.0753 2.30268,13.33757 -0.32526,0.47048 -0.69108,0.91283 -1.09183,1.32092" />
    <path
       sodipodi:type="spiral"
       style="fill:none;fill-rule:evenodd;stroke:#ffec00;stroke-opacity:1"
       id="path20389-9-12"
       sodipodi:cx="95.097595"
       sodipodi:cy="289.95795"
       sodipodi:expansion="1"
       sodipodi:revolution="3.0272093"
       sodipodi:radius="10.067788"
       sodipodi:argument="-18.191668"
       sodipodi:t0="0"
       transform="matrix(0.94800417,0,0,0.99886818,-64.085021,-88.572586)"
       inkscape:transform-center-x="22.895751"
       inkscape:transform-center-y="3.3743268"
       d="m 95.097595,289.95795 c 0.395837,0.30587 -0.21702,0.68448 -0.508382,0.6579 -0.789575,-0.072 -1.039063,-1.03956 -0.807432,-1.67467 0.414332,-1.13606 1.828966,-1.44429 2.840962,-0.95695 1.485144,0.71518 1.85982,2.62846 1.106481,4.00725 -1.004083,1.83771 -3.431458,2.27964 -5.173542,1.256 -2.192235,-1.28814 -2.701657,-4.2361 -1.40553,-6.33983 1.569783,-2.5479 5.041674,-3.12494 7.506121,-1.55505 2.904267,1.85005 3.549027,5.84782 1.704577,8.67241 -2.129482,3.2611 -6.65435,3.97363 -9.838698,1.8541 -3.618259,-2.40835 -4.398621,-7.46115 -2.003629,-11.00499 2.68682,-3.97565 8.268154,-4.82387 12.171277,-2.15315 4.33321,2.965 5.24933,9.0753 2.30268,13.33757 -0.32526,0.47048 -0.69108,0.91283 -1.09183,1.32092" />
    <path
       sodipodi:type="spiral"
       style="fill:none;fill-rule:evenodd;stroke:#ffec00;stroke-opacity:1"
       id="path20389-8"
       sodipodi:cx="95.097595"
       sodipodi:cy="289.95795"
       sodipodi:expansion="1"
       sodipodi:revolution="3.0272093"
       sodipodi:radius="10.067788"
       sodipodi:argument="-18.191668"
       sodipodi:t0="0"
       transform="matrix(1.1486267,0,0,1.2343122,-14.967188,-221.81731)"
       d="m 95.097595,289.95795 c 0.395837,0.30587 -0.21702,0.68448 -0.508382,0.6579 -0.789575,-0.072 -1.039063,-1.03956 -0.807432,-1.67467 0.414332,-1.13606 1.828966,-1.44429 2.840962,-0.95695 1.485144,0.71518 1.85982,2.62846 1.106481,4.00725 -1.004083,1.83771 -3.431458,2.27964 -5.173542,1.256 -2.192235,-1.28814 -2.701657,-4.2361 -1.40553,-6.33983 1.569783,-2.5479 5.041674,-3.12494 7.506121,-1.55505 2.904267,1.85005 3.549027,5.84782 1.704577,8.67241 -2.129482,3.2611 -6.65435,3.97363 -9.838698,1.8541 -3.618259,-2.40835 -4.398621,-7.46115 -2.003629,-11.00499 2.68682,-3.97565 8.268154,-4.82387 12.171277,-2.15315 4.33321,2.965 5.24933,9.0753 2.30268,13.33757 -0.32526,0.47048 -0.69108,0.91283 -1.09183,1.32092"
       inkscape:transform-center-x="0.47422391"
       inkscape:transform-center-y="-4.4932166" />
    <path
       sodipodi:type="spiral"
       style="fill:none;fill-rule:evenodd;stroke:#ffec00;stroke-opacity:1"
       id="path20389-0"
       sodipodi:cx="95.097595"
       sodipodi:cy="289.95795"
       sodipodi:expansion="1"
       sodipodi:revolution="3.0272093"
       sodipodi:radius="10.067788"
       sodipodi:argument="-18.191668"
       sodipodi:t0="0"
       transform="matrix(1.1342864,0,0,1.2175058,9.9175587,-222.35335)"
       d="m 95.097595,289.95795 c 0.395837,0.30587 -0.21702,0.68448 -0.508382,0.6579 -0.789575,-0.072 -1.039063,-1.03956 -0.807432,-1.67467 0.414332,-1.13606 1.828966,-1.44429 2.840962,-0.95695 1.485144,0.71518 1.85982,2.62846 1.106481,4.00725 -1.004083,1.83771 -3.431458,2.27964 -5.173542,1.256 -2.192235,-1.28814 -2.701657,-4.2361 -1.40553,-6.33983 1.569783,-2.5479 5.041674,-3.12494 7.506121,-1.55505 2.904267,1.85005 3.549027,5.84782 1.704577,8.67241 -2.129482,3.2611 -6.65435,3.97363 -9.838698,1.8541 -3.618259,-2.40835 -4.398621,-7.46115 -2.003629,-11.00499 2.68682,-3.97565 8.268154,-4.82387 12.171277,-2.15315 4.33321,2.965 5.24933,9.0753 2.30268,13.33757 -0.32526,0.47048 -0.69108,0.91283 -1.09183,1.32092"
       inkscape:transform-center-x="13.34617"
       inkscape:transform-center-y="-2.6727586" />
  </g>
</svg>
