<?xml version="1.0" encoding="UTF-8" standalone="no"?>
<!-- Created with Inkscape (http://www.inkscape.org/) -->

<svg
   width="210mm"
   height="297mm"
   viewBox="0 0 210 297"
   version="1.1"
   id="svg5"
   inkscape:version="1.1.1 (3bf5ae0d25, 2021-09-20)"
   sodipodi:docname="podmuch.svg"
   xmlns:inkscape="http://www.inkscape.org/namespaces/inkscape"
   xmlns:sodipodi="http://sodipodi.sourceforge.net/DTD/sodipodi-0.dtd"
   xmlns="http://www.w3.org/2000/svg"
   xmlns:svg="http://www.w3.org/2000/svg">
  <sodipodi:namedview
     id="namedview7"
     pagecolor="#ffffff"
     bordercolor="#666666"
     borderopacity="1.0"
     inkscape:pageshadow="2"
     inkscape:pageopacity="0.0"
     inkscape:pagecheckerboard="0"
     inkscape:document-units="mm"
     showgrid="false"
     inkscape:zoom="0.71385146"
     inkscape:cx="397.14144"
     inkscape:cy="455.97721"
     inkscape:window-width="1366"
     inkscape:window-height="705"
     inkscape:window-x="-8"
     inkscape:window-y="-8"
     inkscape:window-maximized="1"
     inkscape:current-layer="layer1" />
  <defs
     id="defs2" />
  <g
     inkscape:label="Warstwa 1"
     inkscape:groupmode="layer"
     id="layer1"
     style="display:inline">
    <path
       style="display:inline;fill:#666666;fill-opacity:0.670683;fill-rule:evenodd;stroke:none;stroke-width:7.20571;stroke-linejoin:round"
       id="path2305"
       d="m 55.716175,164.55249 c 8.799588,3.22887 17.998905,5.10273 27.20972,6.17282 3.564411,0.4141 7.140441,0.85299 10.724491,0.85207 4.769627,-9.2e-4 9.525184,-0.57231 14.287814,-0.85847 14.75462,-3.7848 20.7722,-4.50267 34.99275,-11.79431 18.8193,-9.64968 37.38297,-23.70532 52.07645,-39.94804 2.95288,-3.26422 5.40179,-7.04124 8.10267,-10.56183 0.9345,-2.30847 2.57732,-4.40886 2.80351,-6.9254 0.49977,-5.560556 -6.35433,-4.286372 -8.44867,-3.974405 -3.00499,0.447607 -5.90479,1.545101 -8.8074,2.514105 -7.64658,2.55273 -11.69296,4.51785 -19.04066,7.73936 -0.21342,0.14904 1.69392,3.48452 1.90736,3.33549 v 0 c 5.86906,-2.48307 12.82398,-5.47199 18.73264,-7.77921 2.68798,-1.0496 5.41075,-1.98718 8.11032,-2.99975 1.24774,-0.467987 2.41434,-1.398601 3.73142,-1.441811 0.54001,-0.017 1.31579,0.721014 1.13157,1.282251 -0.69515,2.11776 -2.26475,3.74656 -3.39712,5.61984 -2.88983,3.14217 -5.62805,6.46419 -8.6695,9.42647 -9.80602,9.55077 -20.78301,18.57161 -31.77517,26.30552 -6.27462,4.4147 -12.62008,8.76063 -19.29433,12.38967 -12.73412,6.92404 -20.15728,8.43645 -33.45584,12.40176 -3.95426,0.44415 -7.889507,1.21695 -11.862763,1.33243 -3.531286,0.10263 -7.059642,-0.35195 -10.579652,-0.68026 -9.270091,-0.86458 -18.51021,-2.31793 -27.635171,-4.30551 -0.121327,-0.0659 -0.965835,1.83124 -0.844439,1.89721 z" />
    <path
       style="display:inline;fill:#666666;fill-opacity:0.670683;fill-rule:evenodd;stroke:none;stroke-width:7.20571;stroke-linejoin:round"
       id="path2307"
       d="m 22.352907,46.628552 c 9.804047,5.530125 20.875541,8.718285 31.599141,11.170727 4.382118,1.002179 8.781989,1.954176 13.222526,2.566557 4.57595,0.631053 9.196335,0.772853 13.794511,1.159279 4.827206,-0.38904 9.700408,-0.33594 14.481654,-1.1671 10.882281,-1.89174 20.432111,-6.682151 27.451061,-16.286797 4.54236,-6.215715 4.49,-8.431996 6.31646,-15.520818 -0.0206,-2.105858 0.22893,-4.23626 -0.0617,-6.317615 -0.58284,-4.173579 -2.87731,-8.579799 -6.37122,-10.551074 -2.38605,-1.346206 -3.75772,-0.849793 -6.42243,-0.737005 -5.6664,1.9808 -11.28362,4.215089 -16.797937,6.676337 -0.129891,0.08977 1.019037,2.120194 1.148967,2.030434 v 0 c 2.61595,-1.049085 5.24957,-2.042137 7.86576,-3.090351 1.9637,-0.786791 3.8878,-1.69561 5.86957,-2.424946 0.86286,-0.317553 1.7494,-0.550269 2.62411,-0.825403 1.67838,-0.303578 2.45179,-0.720492 4.12345,0.138807 2.9238,1.503042 4.8313,5.391526 5.23199,8.778448 0.21568,1.82298 -0.0543,3.676524 -0.0816,5.514786 -0.65207,2.187894 -1.03927,4.495015 -1.95619,6.563682 -2.42373,5.468314 -6.16089,10.671739 -10.71884,14.158023 -9.19223,7.030893 -20.653393,7.806795 -31.388663,8.531813 C 77.787796,56.675185 73.272904,56.592033 68.796244,56.032921 64.396578,55.483448 60.041433,54.553457 55.685774,53.6745 47.163027,51.954613 41.33285,50.465491 33.098602,48.134946 c -2.261834,-0.640163 -4.524665,-1.284112 -6.755435,-2.045849 -0.959533,-0.327665 -1.869279,-0.812261 -2.803922,-1.218382 -0.112484,-0.09279 -1.298768,1.665084 -1.186287,1.757781 z" />
    <path
       style="display:inline;fill:#666666;fill-opacity:0.670683;fill-rule:evenodd;stroke:none;stroke-width:7.20571;stroke-linejoin:round"
       id="path2309"
       d="m 3.6469762,99.552163 c 1.7212527,0.818447 3.4033237,1.745937 5.1637558,2.455367 17.046173,6.86946 35.573271,10.53459 53.552812,12.7364 4.459061,0.54607 8.942662,0.81069 13.413993,1.21603 3.682516,-0.002 7.36505,-0.004 11.047567,-0.004 0.257237,0.0772 1.24607,-3.94274 0.988833,-4.02001 v 0 c -3.553462,-0.1354 -7.106905,-0.27096 -10.660348,-0.40646 -4.377834,-0.5202 -8.764065,-0.9603 -13.133502,-1.56063 C 45.980551,107.49046 27.861708,104.39545 10.240374,99.381266 8.4350859,98.867569 6.6616096,98.225952 4.8722258,97.648285 4.7503852,97.552485 3.5251279,99.456766 3.6469762,99.552493 Z" />
    <path
       style="display:inline;fill:#666666;fill-opacity:0.670683;fill-rule:evenodd;stroke:none;stroke-width:7.20571;stroke-linejoin:round"
       id="path2367"
       d="m 70.498027,104.38177 c 12.591025,1.19844 25.227703,-0.22698 37.683883,-2.25927 5.52109,-0.90081 11.03501,-1.8835 16.50525,-3.105514 5.25086,-1.173001 10.42813,-2.717295 15.6422,-4.075946 5.20453,-2.105408 10.62117,-3.656529 15.61362,-6.316164 5.07609,-2.704175 9.97476,-5.912605 14.44858,-9.698906 11.43155,-9.67477 21.43579,-23.521015 24.96716,-39.219821 0.7207,-3.203915 0.45178,-6.583945 0.67767,-9.875917 -0.71638,-2.162688 -0.92401,-4.624959 -2.14912,-6.488048 -2.47471,-3.763425 -6.83004,-3.766114 -10.47244,-3.209748 -3.91005,0.597252 -9.32074,3.330737 -12.54878,5.67094 -2.20372,1.597593 -4.13522,3.612366 -6.20284,5.418529 -5.20474,5.576653 -9.91535,11.725939 -13.3452,18.821047 -1.42536,2.94857 -2.59011,6.077457 -3.14217,9.377876 -0.15183,0.907626 -0.0946,1.843052 -0.14189,2.76456 0.36489,1.109324 0.42707,2.381372 1.84061,2.539799 1.81057,0.202946 6.3798,-2.661545 8.11437,-3.57845 0.12234,-0.09734 -1.12471,-2.008865 -1.24702,-1.911415 v 0 c -2.51286,1.316437 -1.53623,0.777871 -4.03024,2.193518 -0.56624,0.321416 -1.17142,0.57127 -1.69645,0.969039 -0.2621,0.198573 -0.31999,1.061981 -0.56969,0.844757 -0.21333,-0.185583 -0.17916,-0.56646 -0.26875,-0.849699 0.11259,-0.770467 0.15012,-1.559057 0.33788,-2.311439 2.56372,-10.270788 9.93782,-19.054273 16.46217,-26.476194 1.90678,-1.727462 3.67571,-3.659556 5.72033,-5.182405 3.42271,-2.54921 7.47838,-4.341664 11.46978,-5.435876 2.16543,-0.593615 5.34718,-1.423165 7.04334,1.197948 0.97872,1.512453 1.01059,3.54711 1.51588,5.320664 -0.36989,2.933761 -0.3204,5.970483 -1.10969,8.801266 -3.99126,14.314538 -13.72571,27.613375 -24.37667,36.557936 -4.27844,3.592956 -8.95279,6.644638 -13.79781,9.213066 -4.84534,2.568555 -10.09252,4.084386 -15.13878,6.126584 -16.95943,4.217636 -14.39433,3.808099 -31.788,7.191688 -9.497124,1.847471 -16.693893,3.215755 -26.08987,4.236465 -3.457084,0.37556 -6.944158,0.32229 -10.401585,0.70764 -0.130581,0.0371 0.343709,2.07855 0.474324,2.04149 z" />
    <path
       style="display:inline;fill:#666666;fill-opacity:0.670683;fill-rule:evenodd;stroke:none;stroke-width:7.20571;stroke-linejoin:round"
       id="path2572"
       d="m 45.633637,133.85901 c 2.079441,0.55986 4.133998,1.24785 6.238303,1.67963 7.536673,1.54646 18.547824,3.12712 25.95462,3.26738 13.240467,0.25073 24.59291,-0.75264 37.54886,-3.71054 5.49716,-1.25505 10.83525,-3.24656 16.25286,-4.86986 8.96869,-4.09118 20.92454,-8.58696 26.54935,-18.30116 1.76671,-3.05118 2.23045,-6.50356 0.004,-9.41527 -0.89677,-1.17224 -2.3534,-1.63139 -3.53011,-2.44708 -6.38429,-2.104868 -12.67876,-0.325597 -18.99001,0.99061 -20.34527,4.24301 10.34873,-2.382911 -11.71556,2.41523 -3.69,0.92359 -7.04631,1.64873 -10.62757,2.94484 -1.08993,0.39447 -2.1314,0.93673 -3.1971,1.4051 -0.14361,0.093 1.047,2.33652 1.19056,2.24349 v 0 c 4.55267,-1.46971 9.16711,-2.64161 13.81832,-3.67459 2.51241,-0.59426 8.94609,-2.12059 11.58632,-2.72814 4.09781,-0.94295 8.33629,-2.01773 12.55523,-1.92235 1.30939,0.0296 2.60732,0.27671 3.91099,0.41506 1.37718,0.62005 4.14562,1.11075 4.04133,3.68409 -0.15457,3.81381 -4.38242,7.49236 -6.5555,9.14722 -7.57921,5.77179 -12.29886,6.84694 -21.21784,10.43379 -5.32612,1.4505 -10.5948,3.18838 -15.9784,4.35148 -9.61488,2.07724 -24.34406,4.10024 -34.308011,4.31919 -4.856253,0.10661 -9.708564,-0.38672 -14.558991,-0.67007 -10.457571,-0.61093 -9.547001,-0.60424 -17.959218,-1.64539 -0.133493,-0.079 -1.144981,2.00829 -1.011418,2.08734 z" />
    <path
       style="display:inline;fill:#666666;fill-opacity:0.670683;fill-rule:evenodd;stroke:none;stroke-width:7.20571;stroke-linejoin:round"
       id="path2769"
       d="m 28.28806,75.954372 c 17.602199,3.428829 35.794987,4.695689 53.573379,2.094421 3.777813,-0.552749 7.495459,-1.525746 11.24318,-2.288619 9.105321,-2.884336 19.865711,-6.137791 24.487511,-16.35762 1.62299,-3.588828 1.31705,-4.635073 1.39471,-8.31366 -0.007,-1.83991 -1.72162,-4.843019 -0.55829,-6.677038 1.22295,-1.928043 5.58341,-3.778291 7.40204,-4.676658 0.13811,-0.108887 -1.25478,-2.266861 -1.39287,-2.158011 v 0 c -2.86383,1.549398 -6.43909,3.074709 -8.02806,6.432165 -1.0279,2.171892 0.0522,4.807511 0.26655,7.003415 -0.1359,2.99116 0.0857,4.089462 -1.35483,6.962683 -4.65755,9.289857 -15.352787,11.295559 -23.700018,13.854029 -3.675045,0.654667 -7.326784,1.496432 -11.025152,1.964022 -17.148451,2.168124 -34.390861,0.974966 -51.563662,0.04298 -0.135517,-0.05814 -0.880008,2.059673 -0.744488,2.117846 z" />
    <path
       style="fill:#e6e6e6;fill-opacity:0.670683;fill-rule:evenodd;stroke:none;stroke-width:4;stroke-linejoin:round"
       id="path3272"
       d="m 64.803368,156.87533 c 10.391058,1.82161 20.969817,2.71388 31.52217,1.67288 13.626622,-1.34429 27.741742,-4.67519 40.812262,-8.59988 6.00298,-1.80252 11.84032,-4.11657 17.76048,-6.17486 5.53596,-3.18411 11.4211,-5.82638 16.60789,-9.55232 10.35473,-7.43834 19.71596,-17.3164 27.08081,-27.697 3.70187,-5.21771 9.86993,-15.388396 10.3362,-22.710517 0.12967,-2.036268 -1.21628,-3.895312 -1.82441,-5.842968 -1.84558,-0.629246 -3.58684,-1.892385 -5.53674,-1.887734 -6.02007,0.01437 -12.00621,3.735499 -16.42997,7.273745 -6.84233,5.472684 -13.12758,13.336016 -18.12971,20.317264 -3.01463,4.20739 -5.62508,8.69016 -8.43762,13.03524 -0.14435,0.27654 3.7666,2.31791 3.91095,2.04137 v 0 c 2.74782,-4.27863 5.3902,-8.62685 8.24348,-12.8359 5.49212,-8.101754 9.31042,-13.912094 16.54449,-20.255802 3.11441,-2.731095 8.82755,-6.834444 13.38175,-7.661497 1.42416,-0.258633 2.87967,0.296709 4.3195,0.445063 0.30503,1.49859 1.21753,2.996658 0.91509,4.495774 -1.3058,6.472422 -8.13693,16.349659 -11.5164,20.775632 -7.00872,9.17906 -16.75597,19.75748 -26.12899,26.52908 -4.94243,3.57069 -10.59365,6.0402 -15.89048,9.0603 -15.95243,4.9837 -21.41516,6.9409 -38.09098,11.05122 -6.33923,1.56251 -12.68575,3.15123 -19.125921,4.22429 -4.325144,0.72065 -8.723442,0.96087 -13.10431,1.14589 -5.579432,0.23564 -11.17043,-0.45894 -16.752662,-0.13698 -0.09105,-0.033 -0.557932,1.2547 -0.466879,1.28771 z" />
    <path
       style="fill:#e6e6e6;fill-opacity:0.670683;fill-rule:evenodd;stroke:none;stroke-width:4;stroke-linejoin:round"
       id="path3274"
       d="m 64.507363,125.78865 c 0.327927,0.0956 0.648462,0.22168 0.983777,0.28674 5.840939,1.13343 11.75001,1.34284 17.69065,1.2682 7.799427,-0.098 9.255066,-0.39512 16.94134,-1.13016 6.31268,-0.82483 12.70799,-1.62256 18.76478,-3.69381 1.76007,-0.6019 4.21433,-1.88346 5.97862,-2.64257 0.81138,-0.34911 1.64147,-0.65303 2.46221,-0.97955 5.04084,-1.79662 10.49317,-3.74405 14.72199,-7.13082 0.55696,-0.44606 1.03664,-0.98086 1.55497,-1.47129 0.80113,-1.05501 1.56209,-2.29326 0.80327,-3.61729 -0.59584,-1.03965 -1.77989,-1.3356 -2.82723,-1.64451 -2.5716,-0.46718 -5.25173,-0.60209 -7.85173,-0.26758 -2.23364,0.28737 -3.89712,0.86883 -6.09285,1.49691 -4.46189,1.45841 -8.65432,3.57268 -12.77123,5.79804 -0.0904,0.0675 0.86356,1.34564 0.95394,1.27818 v 0 c 4.18274,-1.93146 8.3474,-3.92233 12.66898,-5.52977 1.06622,-0.35646 2.117,-0.7629 3.19864,-1.06937 3.03406,-0.85965 6.22237,-0.93298 9.34028,-0.60733 0.70909,0.15932 1.71763,0.28519 2.24091,0.87936 0.7199,0.81746 -0.28293,1.77393 -0.76524,2.3334 -0.50716,0.41624 -0.98353,0.87313 -1.52149,1.24872 -1.36727,0.95461 -3.67336,2.17572 -5.09418,2.88901 -3.05671,1.53453 -6.20492,2.8778 -9.41056,4.06831 -2.82787,1.08408 -5.609,2.27983 -8.54629,3.0519 -1.6426,0.43176 -3.29411,0.84023 -4.96522,1.14342 -3.24881,0.58944 -10.78281,1.42332 -13.757056,1.77594 -11.620891,1.00503 -23.294239,1.9852 -34.964023,1.24261 -0.07236,0.0186 0.190384,1.04189 0.262742,1.02331 z" />
    <path
       style="fill:#e6e6e6;fill-opacity:0.670683;fill-rule:evenodd;stroke:none;stroke-width:4;stroke-linejoin:round"
       id="path3280"
       d="m 58.155585,88.852747 c 0.666509,0.162451 1.323854,0.368654 1.999531,0.487352 4.314213,0.757894 8.677999,1.255572 13.070244,1.227534 8.44132,-0.05388 15.474701,-0.832056 23.793344,-2.230805 3.482846,-0.585626 6.920456,-1.414216 10.380686,-2.121323 10.56986,-2.819419 21.29561,-5.130872 31.66325,-8.665631 6.20253,-2.114701 6.95457,-2.573441 12.54626,-5.034595 6.13054,-3.023716 12.53517,-5.779767 17.90442,-10.109864 6.03813,-4.869516 7.11368,-6.691333 12.26188,-12.669461 3.50891,-5.080458 5.64316,-7.484245 7.87681,-13.103691 0.61578,-1.54918 1.09658,-3.177826 1.27918,-4.834871 0.19011,-1.725115 -0.11382,-4.055153 -2.21401,-4.589092 -1.00819,-0.256315 -2.07487,0.153257 -3.1123,0.229886 -1.00071,0.472032 -2.03896,0.871558 -3.00214,1.416103 -4.35154,2.46018 -8.36199,6.080008 -11.44207,10.005824 -0.8958,1.411568 -1.01192,3.006696 -1.04686,4.631552 0.007,0.796489 -0.003,2.692419 1.11092,2.899974 0.5578,0.103973 1.13427,-0.03503 1.7014,-0.05255 0.0815,-0.03408 -0.40047,-1.186953 -0.48199,-1.152869 v 0 c -0.17238,0.111122 -0.32475,0.262265 -0.51711,0.333367 -0.75701,0.279807 -0.60266,-1.770756 -0.61909,-2.019274 -0.007,-1.418426 -0.0638,-2.763771 0.98543,-3.855037 1.766,-1.786086 3.58641,-3.48746 5.5186,-5.096732 1.80701,-1.505019 3.79188,-3.098075 5.80104,-4.336479 0.83132,-0.512408 1.72623,-0.913643 2.58935,-1.370462 0.51698,-0.206153 0.99446,-0.608483 1.55094,-0.618456 1.76228,-0.03159 1.41537,2.009762 1.17755,3.056949 -0.34164,1.504315 -0.90959,2.959904 -1.5752,4.351535 -2.52363,5.276308 -4.5583,7.559707 -8.08757,12.427183 -4.24378,5.115375 -6.50373,8.262766 -11.43059,12.63133 -5.06978,4.4953 -11.23493,7.444719 -17.4869,9.879629 -6.69485,2.472817 -13.39105,4.989301 -20.25513,6.964966 -2.49749,0.718846 -5.02825,1.317048 -7.54958,1.947164 -8.98004,2.24423 -7.18448,1.770279 -16.47235,3.667294 -9.064671,1.571352 -12.700454,2.284232 -22.029569,3.541252 -3.354097,0.451937 -6.708884,0.931524 -10.083697,1.186172 -2.952292,0.222769 -9.77116,0.226586 -13.259112,0.113041 -0.691496,-0.02252 -1.379508,-0.107932 -2.069261,-0.161896 -0.07248,-0.03368 -0.548783,0.991298 -0.476306,1.024977 z" />
    <path
       style="fill:#e6e6e6;fill-opacity:0.670683;fill-rule:evenodd;stroke:none;stroke-width:4;stroke-linejoin:round"
       id="path3282"
       d="m 25.821284,66.17999 c 0.760559,0.163955 1.515934,0.354124 2.281673,0.491863 3.311522,0.595667 6.234284,0.969487 9.620395,1.318125 5.97545,0.615244 10.656244,0.995852 16.74282,1.134229 3.362068,0.07644 6.725872,-0.0016 10.088808,-0.0024 6.086581,-0.395893 8.157681,-0.332242 13.768184,-1.325147 2.017781,-0.357092 3.972544,-1.018598 5.985885,-1.399945 1.898306,-0.359555 2.730516,-0.33886 4.74026,-0.462222 5.475517,-0.424034 11.044851,-1.255437 16.197001,-3.250993 1.0202,-0.39515 1.97459,-0.942774 2.96188,-1.414161 0.0999,-0.06813 -0.86364,-1.481246 -0.96357,-1.41311 v 0 c -0.96934,0.386609 -1.91891,0.827079 -2.90804,1.15983 -5.109931,1.719021 -10.4636,2.685081 -15.79134,3.409399 -0.649181,0.07016 -4.024185,0.431303 -4.84606,0.532659 -0.845707,0.104297 -1.687105,0.243097 -2.534039,0.336879 -5.770023,0.63891 -11.58136,0.723286 -17.3789,0.865393 -8.44727,0.05598 -16.900564,0.09813 -25.342736,-0.278288 -3.274171,-0.145989 -6.538687,-0.464828 -9.811443,-0.639702 -0.803552,-0.04294 -1.608338,-0.05846 -2.412506,-0.08769 -0.0725,-0.02816 -0.470768,0.99709 -0.398272,1.025253 z" />
    <path
       style="fill:#e6e6e6;fill-opacity:0.670683;fill-rule:evenodd;stroke:none;stroke-width:4;stroke-linejoin:round"
       id="path3284"
       d="m 51.750856,43.49311 c 0.741498,0.50668 1.422199,1.11647 2.224495,1.520037 5.653979,2.844048 12.030808,5.149476 18.179558,6.418855 11.379287,2.349195 20.573388,3.216822 32.050791,-0.369351 5.28244,-1.650523 9.84247,-5.063521 14.7637,-7.595282 7.58648,-7.202234 14.18711,-11.57595 17.86122,-21.711334 1.13171,-3.121937 1.57114,-6.655186 0.9482,-9.916967 -0.52214,-2.7340158 -2.06823,-5.438866 -4.21841,-7.2064025 -6.05171,-4.97474034 -12.48663,-2.7295145 -19.32164,-2.0670825 -3.23781,1.3342671 -6.63131,2.3401973 -9.71342,4.0028016 -4.852047,2.6173713 -9.534368,6.3882294 -12.615523,11.0429904 -1.738079,2.625754 -3.022031,5.868429 -1.601501,8.978826 0.50061,1.096143 1.663562,1.74388 2.495343,2.615819 1.344068,0.422516 2.635512,1.082368 4.032205,1.267548 2.161842,0.286625 4.364996,0.279672 6.540896,0.134273 7.21567,-0.482161 10.40509,-1.626552 17.5025,-3.390228 0.19264,-0.09623 -1.16827,-2.820635 -1.36091,-2.724404 v 0 c -6.64321,1.776521 -10.05885,2.904112 -16.75381,3.907568 -1.68611,0.252722 -3.394904,0.452263 -5.099091,0.401225 -1.200136,-0.03594 -2.360694,-0.439987 -3.541043,-0.659977 -0.680519,-0.575474 -1.6476,-0.926997 -2.041554,-1.726419 -1.263025,-2.562969 0.474898,-5.383451 1.938904,-7.277433 3.20086,-4.140947 7.704854,-7.450672 12.286954,-9.8511354 2.89599,-1.5171428 6.03994,-2.5046061 9.05991,-3.7569095 5.13939,-0.9487045 10.77337,-3.200485 15.79129,0.2791696 1.84884,1.2820684 3.21617,3.5029632 3.57726,5.7236643 0.4603,2.830835 -0.14003,5.871728 -1.2627,8.510882 -3.87114,9.100296 -10.15254,13.283993 -17.25716,19.805144 -4.5637,2.34483 -8.83969,5.364326 -13.69109,7.034485 -10.291963,3.543144 -18.205248,2.748566 -28.761199,1.29145 -4.377629,-0.604277 -13.85506,-2.788029 -18.778926,-4.393404 -0.848162,-0.276534 -1.615901,-0.756483 -2.423851,-1.134724 -0.05984,-0.05738 -0.871241,0.78894 -0.811398,0.846315 z" />
  </g>
</svg>
